<svg xmlns="http://www.w3.org/2000/svg" width="603" height="168" viewBox="0 0 603 168" role="img" aria-label="Play time: 129.7 hours over 93 commits, last played 30 Aug">
  <style>
    .card { fill: #0d1117; stroke: #30363d }
    text { font-family: -apple-system, BlinkMacSystemFont, "Segoe UI", Helvetica, Arial, sans-serif }
    .label { font-size: 11px; letter-spacing: 1.7px; fill: #8b949e }
    .stat { font-size: 16px; font-weight: 600; letter-spacing: normal; fill: #e6edf3 }
    .note { font-size: 12px; fill: #8b949e }
    .axis { font-size: 10px; fill: #6e7681 }
    .bar { fill: #388bfd }
    .bar-quiet { fill: #21262d }
  </style>
  <rect class="card" x="0.5" y="0.5" width="602" height="167" rx="8"/>
  <text class="label" x="24" y="40">PLAY TIME</text>
  <text class="stat" x="24" y="62">129.7 hours</text>
  <text class="label" x="579" y="40" text-anchor="end">LAST PLAYED <tspan class="stat">30 Aug</tspan></text>
  <text class="note" x="579" y="62" text-anchor="end">63.9 hours in the last 14 days   ·   46 sittings   ·   93 commits</text>
  <rect class="bar" x="24.0" y="127.2" width="6" height="6.8" rx="1.5"/>
  <rect class="bar-quiet" x="33.8" y="131.0" width="6" height="3.0" rx="1.5"/>
  <rect class="bar-quiet" x="43.6" y="131.0" width="6" height="3.0" rx="1.5"/>
  <rect class="bar-quiet" x="53.4" y="131.0" width="6" height="3.0" rx="1.5"/>
  <rect class="bar-quiet" x="63.2" y="131.0" width="6" height="3.0" rx="1.5"/>
  <rect class="bar-quiet" x="73.0" y="131.0" width="6" height="3.0" rx="1.5"/>
  <rect class="bar-quiet" x="82.8" y="131.0" width="6" height="3.0" rx="1.5"/>
  <rect class="bar-quiet" x="92.6" y="131.0" width="6" height="3.0" rx="1.5"/>
  <rect class="bar-quiet" x="102.4" y="131.0" width="6" height="3.0" rx="1.5"/>
  <rect class="bar" x="112.2" y="120.5" width="6" height="13.5" rx="1.5"/>
  <rect class="bar" x="122.0" y="120.5" width="6" height="13.5" rx="1.5"/>
  <rect class="bar" x="131.8" y="114.2" width="6" height="19.8" rx="1.5"/>
  <rect class="bar" x="141.6" y="127.2" width="6" height="6.8" rx="1.5"/>
  <rect class="bar-quiet" x="151.4" y="131.0" width="6" height="3.0" rx="1.5"/>
  <rect class="bar-quiet" x="161.2" y="131.0" width="6" height="3.0" rx="1.5"/>
  <rect class="bar-quiet" x="171.1" y="131.0" width="6" height="3.0" rx="1.5"/>
  <rect class="bar-quiet" x="180.9" y="131.0" width="6" height="3.0" rx="1.5"/>
  <rect class="bar-quiet" x="190.7" y="131.0" width="6" height="3.0" rx="1.5"/>
  <rect class="bar-quiet" x="200.5" y="131.0" width="6" height="3.0" rx="1.5"/>
  <rect class="bar-quiet" x="210.3" y="131.0" width="6" height="3.0" rx="1.5"/>
  <rect class="bar-quiet" x="220.1" y="131.0" width="6" height="3.0" rx="1.5"/>
  <rect class="bar-quiet" x="229.9" y="131.0" width="6" height="3.0" rx="1.5"/>
  <rect class="bar-quiet" x="239.7" y="131.0" width="6" height="3.0" rx="1.5"/>
  <rect class="bar" x="249.5" y="116.4" width="6" height="17.6" rx="1.5"/>
  <rect class="bar" x="259.3" y="127.2" width="6" height="6.8" rx="1.5"/>
  <rect class="bar" x="269.1" y="127.2" width="6" height="6.8" rx="1.5"/>
  <rect class="bar" x="278.9" y="120.3" width="6" height="13.7" rx="1.5"/>
  <rect class="bar" x="288.7" y="127.2" width="6" height="6.8" rx="1.5"/>
  <rect class="bar-quiet" x="298.5" y="131.0" width="6" height="3.0" rx="1.5"/>
  <rect class="bar-quiet" x="308.3" y="131.0" width="6" height="3.0" rx="1.5"/>
  <rect class="bar-quiet" x="318.1" y="131.0" width="6" height="3.0" rx="1.5"/>
  <rect class="bar-quiet" x="327.9" y="131.0" width="6" height="3.0" rx="1.5"/>
  <rect class="bar-quiet" x="337.7" y="131.0" width="6" height="3.0" rx="1.5"/>
  <rect class="bar" x="347.5" y="123.4" width="6" height="10.6" rx="1.5"/>
  <rect class="bar" x="357.3" y="92.7" width="6" height="41.3" rx="1.5"/>
  <rect class="bar" x="367.1" y="127.2" width="6" height="6.8" rx="1.5"/>
  <rect class="bar" x="376.9" y="127.1" width="6" height="6.9" rx="1.5"/>
  <rect class="bar" x="386.7" y="120.5" width="6" height="13.5" rx="1.5"/>
  <rect class="bar" x="396.5" y="127.2" width="6" height="6.8" rx="1.5"/>
  <rect class="bar-quiet" x="406.3" y="131.0" width="6" height="3.0" rx="1.5"/>
  <rect class="bar-quiet" x="416.1" y="131.0" width="6" height="3.0" rx="1.5"/>
  <rect class="bar-quiet" x="425.9" y="131.0" width="6" height="3.0" rx="1.5"/>
  <rect class="bar" x="435.8" y="109.2" width="6" height="24.8" rx="1.5"/>
  <rect class="bar" x="445.6" y="102.0" width="6" height="32.0" rx="1.5"/>
  <rect class="bar" x="455.4" y="123.0" width="6" height="11.0" rx="1.5"/>
  <rect class="bar" x="465.2" y="120.5" width="6" height="13.5" rx="1.5"/>
  <rect class="bar-quiet" x="475.0" y="131.0" width="6" height="3.0" rx="1.5"/>
  <rect class="bar" x="484.8" y="113.7" width="6" height="20.3" rx="1.5"/>
  <rect class="bar" x="494.6" y="112.8" width="6" height="21.2" rx="1.5"/>
  <rect class="bar" x="504.4" y="111.9" width="6" height="22.1" rx="1.5"/>
  <rect class="bar" x="514.2" y="112.2" width="6" height="21.8" rx="1.5"/>
  <rect class="bar" x="524.0" y="120.5" width="6" height="13.5" rx="1.5"/>
  <rect class="bar" x="533.8" y="88.0" width="6" height="46.0" rx="1.5"/>
  <rect class="bar" x="543.6" y="126.2" width="6" height="7.8" rx="1.5"/>
  <rect class="bar-quiet" x="553.4" y="131.0" width="6" height="3.0" rx="1.5"/>
  <rect class="bar-quiet" x="563.2" y="131.0" width="6" height="3.0" rx="1.5"/>
  <rect class="bar" x="573.0" y="127.2" width="6" height="6.8" rx="1.5"/>
  <text class="axis" x="24" y="152">5 Jul 2026</text>
  <text class="axis" x="301.5" y="152" text-anchor="middle">57 days</text>
  <text class="axis" x="579" y="152" text-anchor="end">30 Aug 2026</text>
</svg>
