<svg xmlns="http://www.w3.org/2000/svg" width="603" height="168" viewBox="0 0 603 168" role="img" aria-label="Play time: 125.4 hours over 89 commits, last played 26 Aug">
  <style>
    .card { fill: #0d1117; stroke: #30363d }
    text { font-family: -apple-system, BlinkMacSystemFont, "Segoe UI", Helvetica, Arial, sans-serif }
    .label { font-size: 11px; letter-spacing: 1.7px; fill: #8b949e }
    .stat { font-size: 16px; font-weight: 600; letter-spacing: normal; fill: #e6edf3 }
    .note { font-size: 12px; fill: #8b949e }
    .axis { font-size: 10px; fill: #6e7681 }
    .bar { fill: #388bfd }
    .bar-quiet { fill: #21262d }
  </style>
  <rect class="card" x="0.5" y="0.5" width="602" height="167" rx="8"/>
  <text class="label" x="24" y="40">PLAY TIME</text>
  <text class="stat" x="24" y="62">125.4 hours</text>
  <text class="label" x="579" y="40" text-anchor="end">LAST PLAYED <tspan class="stat">26 Aug</tspan></text>
  <text class="note" x="579" y="62" text-anchor="end">66.9 hours in the last 14 days   ·   44 sittings   ·   89 commits</text>
  <rect class="bar" x="24.0" y="127.2" width="7" height="6.8" rx="1.5"/>
  <rect class="bar-quiet" x="34.5" y="131.0" width="7" height="3.0" rx="1.5"/>
  <rect class="bar-quiet" x="45.1" y="131.0" width="7" height="3.0" rx="1.5"/>
  <rect class="bar-quiet" x="55.6" y="131.0" width="7" height="3.0" rx="1.5"/>
  <rect class="bar-quiet" x="66.2" y="131.0" width="7" height="3.0" rx="1.5"/>
  <rect class="bar-quiet" x="76.7" y="131.0" width="7" height="3.0" rx="1.5"/>
  <rect class="bar-quiet" x="87.2" y="131.0" width="7" height="3.0" rx="1.5"/>
  <rect class="bar-quiet" x="97.8" y="131.0" width="7" height="3.0" rx="1.5"/>
  <rect class="bar-quiet" x="108.3" y="131.0" width="7" height="3.0" rx="1.5"/>
  <rect class="bar" x="118.8" y="120.5" width="7" height="13.5" rx="1.5"/>
  <rect class="bar" x="129.4" y="120.5" width="7" height="13.5" rx="1.5"/>
  <rect class="bar" x="139.9" y="114.2" width="7" height="19.8" rx="1.5"/>
  <rect class="bar" x="150.5" y="127.2" width="7" height="6.8" rx="1.5"/>
  <rect class="bar-quiet" x="161.0" y="131.0" width="7" height="3.0" rx="1.5"/>
  <rect class="bar-quiet" x="171.5" y="131.0" width="7" height="3.0" rx="1.5"/>
  <rect class="bar-quiet" x="182.1" y="131.0" width="7" height="3.0" rx="1.5"/>
  <rect class="bar-quiet" x="192.6" y="131.0" width="7" height="3.0" rx="1.5"/>
  <rect class="bar-quiet" x="203.2" y="131.0" width="7" height="3.0" rx="1.5"/>
  <rect class="bar-quiet" x="213.7" y="131.0" width="7" height="3.0" rx="1.5"/>
  <rect class="bar-quiet" x="224.2" y="131.0" width="7" height="3.0" rx="1.5"/>
  <rect class="bar-quiet" x="234.8" y="131.0" width="7" height="3.0" rx="1.5"/>
  <rect class="bar-quiet" x="245.3" y="131.0" width="7" height="3.0" rx="1.5"/>
  <rect class="bar-quiet" x="255.8" y="131.0" width="7" height="3.0" rx="1.5"/>
  <rect class="bar" x="266.4" y="116.4" width="7" height="17.6" rx="1.5"/>
  <rect class="bar" x="276.9" y="127.2" width="7" height="6.8" rx="1.5"/>
  <rect class="bar" x="287.5" y="127.2" width="7" height="6.8" rx="1.5"/>
  <rect class="bar" x="298.0" y="120.3" width="7" height="13.7" rx="1.5"/>
  <rect class="bar" x="308.5" y="127.2" width="7" height="6.8" rx="1.5"/>
  <rect class="bar-quiet" x="319.1" y="131.0" width="7" height="3.0" rx="1.5"/>
  <rect class="bar-quiet" x="329.6" y="131.0" width="7" height="3.0" rx="1.5"/>
  <rect class="bar-quiet" x="340.2" y="131.0" width="7" height="3.0" rx="1.5"/>
  <rect class="bar-quiet" x="350.7" y="131.0" width="7" height="3.0" rx="1.5"/>
  <rect class="bar-quiet" x="361.2" y="131.0" width="7" height="3.0" rx="1.5"/>
  <rect class="bar" x="371.8" y="123.4" width="7" height="10.6" rx="1.5"/>
  <rect class="bar" x="382.3" y="92.7" width="7" height="41.3" rx="1.5"/>
  <rect class="bar" x="392.8" y="127.2" width="7" height="6.8" rx="1.5"/>
  <rect class="bar" x="403.4" y="127.1" width="7" height="6.9" rx="1.5"/>
  <rect class="bar" x="413.9" y="120.5" width="7" height="13.5" rx="1.5"/>
  <rect class="bar" x="424.5" y="127.2" width="7" height="6.8" rx="1.5"/>
  <rect class="bar-quiet" x="435.0" y="131.0" width="7" height="3.0" rx="1.5"/>
  <rect class="bar-quiet" x="445.5" y="131.0" width="7" height="3.0" rx="1.5"/>
  <rect class="bar-quiet" x="456.1" y="131.0" width="7" height="3.0" rx="1.5"/>
  <rect class="bar" x="466.6" y="109.2" width="7" height="24.8" rx="1.5"/>
  <rect class="bar" x="477.2" y="102.0" width="7" height="32.0" rx="1.5"/>
  <rect class="bar" x="487.7" y="123.0" width="7" height="11.0" rx="1.5"/>
  <rect class="bar" x="498.2" y="120.5" width="7" height="13.5" rx="1.5"/>
  <rect class="bar-quiet" x="508.8" y="131.0" width="7" height="3.0" rx="1.5"/>
  <rect class="bar" x="519.3" y="113.7" width="7" height="20.3" rx="1.5"/>
  <rect class="bar" x="529.8" y="112.8" width="7" height="21.2" rx="1.5"/>
  <rect class="bar" x="540.4" y="111.9" width="7" height="22.1" rx="1.5"/>
  <rect class="bar" x="550.9" y="112.2" width="7" height="21.8" rx="1.5"/>
  <rect class="bar" x="561.5" y="120.5" width="7" height="13.5" rx="1.5"/>
  <rect class="bar" x="572.0" y="88.0" width="7" height="46.0" rx="1.5"/>
  <text class="axis" x="24" y="152">5 Jul 2026</text>
  <text class="axis" x="301.5" y="152" text-anchor="middle">53 days</text>
  <text class="axis" x="579" y="152" text-anchor="end">26 Aug 2026</text>
</svg>
