<svg xmlns="http://www.w3.org/2000/svg" width="609" height="168" viewBox="0 0 609 168" role="img" aria-label="Play time: 182.5 hours over 136 commits, last played 19 Sep">
  <style>
    .card { fill: #0d1117; stroke: #30363d }
    text { font-family: -apple-system, BlinkMacSystemFont, "Segoe UI", Helvetica, Arial, sans-serif }
    .label { font-size: 11px; letter-spacing: 1.7px; fill: #8b949e }
    .stat { font-size: 16px; font-weight: 600; letter-spacing: normal; fill: #e6edf3 }
    .note { font-size: 12px; fill: #8b949e }
    .axis { font-size: 10px; fill: #6e7681 }
    .bar { fill: #388bfd }
    .bar-quiet { fill: #21262d }
  </style>
  <rect class="card" x="0.5" y="0.5" width="608" height="167" rx="8"/>
  <text class="label" x="24" y="40">PLAY TIME</text>
  <text class="stat" x="24" y="62">182.5 hours</text>
  <text class="label" x="585" y="40" text-anchor="end">LAST PLAYED <tspan class="stat">19 Sep</tspan></text>
  <text class="note" x="585" y="62" text-anchor="end">16.9 hours in the last 14 days   ·   61 sittings   ·   136 commits</text>
  <rect class="bar-quiet" x="24.0" y="131.0" width="6" height="3.0" rx="1.5"/>
  <rect class="bar-quiet" x="33.4" y="131.0" width="6" height="3.0" rx="1.5"/>
  <rect class="bar-quiet" x="42.8" y="131.0" width="6" height="3.0" rx="1.5"/>
  <rect class="bar-quiet" x="52.2" y="131.0" width="6" height="3.0" rx="1.5"/>
  <rect class="bar-quiet" x="61.6" y="131.0" width="6" height="3.0" rx="1.5"/>
  <rect class="bar-quiet" x="71.0" y="131.0" width="6" height="3.0" rx="1.5"/>
  <rect class="bar" x="80.4" y="116.4" width="6" height="17.6" rx="1.5"/>
  <rect class="bar" x="89.8" y="127.2" width="6" height="6.8" rx="1.5"/>
  <rect class="bar" x="99.3" y="127.2" width="6" height="6.8" rx="1.5"/>
  <rect class="bar" x="108.7" y="120.3" width="6" height="13.7" rx="1.5"/>
  <rect class="bar" x="118.1" y="127.2" width="6" height="6.8" rx="1.5"/>
  <rect class="bar-quiet" x="127.5" y="131.0" width="6" height="3.0" rx="1.5"/>
  <rect class="bar-quiet" x="136.9" y="131.0" width="6" height="3.0" rx="1.5"/>
  <rect class="bar-quiet" x="146.3" y="131.0" width="6" height="3.0" rx="1.5"/>
  <rect class="bar-quiet" x="155.7" y="131.0" width="6" height="3.0" rx="1.5"/>
  <rect class="bar-quiet" x="165.1" y="131.0" width="6" height="3.0" rx="1.5"/>
  <rect class="bar" x="174.5" y="123.4" width="6" height="10.6" rx="1.5"/>
  <rect class="bar" x="183.9" y="92.7" width="6" height="41.3" rx="1.5"/>
  <rect class="bar" x="193.3" y="127.2" width="6" height="6.8" rx="1.5"/>
  <rect class="bar" x="202.7" y="127.1" width="6" height="6.9" rx="1.5"/>
  <rect class="bar" x="212.1" y="120.5" width="6" height="13.5" rx="1.5"/>
  <rect class="bar" x="221.5" y="127.2" width="6" height="6.8" rx="1.5"/>
  <rect class="bar-quiet" x="230.9" y="131.0" width="6" height="3.0" rx="1.5"/>
  <rect class="bar-quiet" x="240.4" y="131.0" width="6" height="3.0" rx="1.5"/>
  <rect class="bar-quiet" x="249.8" y="131.0" width="6" height="3.0" rx="1.5"/>
  <rect class="bar" x="259.2" y="109.2" width="6" height="24.8" rx="1.5"/>
  <rect class="bar" x="268.6" y="102.0" width="6" height="32.0" rx="1.5"/>
  <rect class="bar" x="278.0" y="123.0" width="6" height="11.0" rx="1.5"/>
  <rect class="bar" x="287.4" y="120.5" width="6" height="13.5" rx="1.5"/>
  <rect class="bar-quiet" x="296.8" y="131.0" width="6" height="3.0" rx="1.5"/>
  <rect class="bar" x="306.2" y="113.7" width="6" height="20.3" rx="1.5"/>
  <rect class="bar" x="315.6" y="112.8" width="6" height="21.2" rx="1.5"/>
  <rect class="bar" x="325.0" y="111.9" width="6" height="22.1" rx="1.5"/>
  <rect class="bar" x="334.4" y="112.2" width="6" height="21.8" rx="1.5"/>
  <rect class="bar" x="343.8" y="120.5" width="6" height="13.5" rx="1.5"/>
  <rect class="bar" x="353.2" y="88.0" width="6" height="46.0" rx="1.5"/>
  <rect class="bar" x="362.6" y="126.2" width="6" height="7.8" rx="1.5"/>
  <rect class="bar-quiet" x="372.1" y="131.0" width="6" height="3.0" rx="1.5"/>
  <rect class="bar-quiet" x="381.5" y="131.0" width="6" height="3.0" rx="1.5"/>
  <rect class="bar" x="390.9" y="108.4" width="6" height="25.6" rx="1.5"/>
  <rect class="bar-quiet" x="400.3" y="131.0" width="6" height="3.0" rx="1.5"/>
  <rect class="bar" x="409.7" y="127.2" width="6" height="6.8" rx="1.5"/>
  <rect class="bar" x="419.1" y="127.2" width="6" height="6.8" rx="1.5"/>
  <rect class="bar" x="428.5" y="88.3" width="6" height="45.7" rx="1.5"/>
  <rect class="bar" x="437.9" y="90.8" width="6" height="43.2" rx="1.5"/>
  <rect class="bar-quiet" x="447.3" y="131.0" width="6" height="3.0" rx="1.5"/>
  <rect class="bar" x="456.7" y="97.1" width="6" height="36.9" rx="1.5"/>
  <rect class="bar-quiet" x="466.1" y="131.0" width="6" height="3.0" rx="1.5"/>
  <rect class="bar-quiet" x="475.5" y="131.0" width="6" height="3.0" rx="1.5"/>
  <rect class="bar-quiet" x="484.9" y="131.0" width="6" height="3.0" rx="1.5"/>
  <rect class="bar-quiet" x="494.3" y="131.0" width="6" height="3.0" rx="1.5"/>
  <rect class="bar-quiet" x="503.7" y="131.0" width="6" height="3.0" rx="1.5"/>
  <rect class="bar-quiet" x="513.2" y="131.0" width="6" height="3.0" rx="1.5"/>
  <rect class="bar-quiet" x="522.6" y="131.0" width="6" height="3.0" rx="1.5"/>
  <rect class="bar" x="532.0" y="127.2" width="6" height="6.8" rx="1.5"/>
  <rect class="bar-quiet" x="541.4" y="131.0" width="6" height="3.0" rx="1.5"/>
  <rect class="bar" x="550.8" y="127.2" width="6" height="6.8" rx="1.5"/>
  <rect class="bar-quiet" x="560.2" y="131.0" width="6" height="3.0" rx="1.5"/>
  <rect class="bar-quiet" x="569.6" y="131.0" width="6" height="3.0" rx="1.5"/>
  <rect class="bar" x="579.0" y="127.2" width="6" height="6.8" rx="1.5"/>
  <text class="axis" x="24" y="152">5 Jul 2026</text>
  <text class="axis" x="304.5" y="152" text-anchor="middle">77 days</text>
  <text class="axis" x="585" y="152" text-anchor="end">19 Sep 2026</text>
</svg>
