<svg xmlns="http://www.w3.org/2000/svg" width="591" height="168" viewBox="0 0 591 168" role="img" aria-label="Play time: 131.8 hours over 95 commits, last played 30 Aug">
  <style>
    .card { fill: #0d1117; stroke: #30363d }
    text { font-family: -apple-system, BlinkMacSystemFont, "Segoe UI", Helvetica, Arial, sans-serif }
    .label { font-size: 11px; letter-spacing: 1.7px; fill: #8b949e }
    .stat { font-size: 16px; font-weight: 600; letter-spacing: normal; fill: #e6edf3 }
    .note { font-size: 12px; fill: #8b949e }
    .axis { font-size: 10px; fill: #6e7681 }
    .bar { fill: #388bfd }
    .bar-quiet { fill: #21262d }
  </style>
  <rect class="card" x="0.5" y="0.5" width="590" height="167" rx="8"/>
  <text class="label" x="24" y="40">PLAY TIME</text>
  <text class="stat" x="24" y="62">131.8 hours</text>
  <text class="label" x="567" y="40" text-anchor="end">LAST PLAYED <tspan class="stat">30 Aug</tspan></text>
  <text class="note" x="567" y="62" text-anchor="end">66 hours in the last 14 days   ·   47 sittings   ·   95 commits</text>
  <rect class="bar" x="24.0" y="127.2" width="6" height="6.8" rx="1.5"/>
  <rect class="bar-quiet" x="33.6" y="131.0" width="6" height="3.0" rx="1.5"/>
  <rect class="bar-quiet" x="43.2" y="131.0" width="6" height="3.0" rx="1.5"/>
  <rect class="bar-quiet" x="52.8" y="131.0" width="6" height="3.0" rx="1.5"/>
  <rect class="bar-quiet" x="62.4" y="131.0" width="6" height="3.0" rx="1.5"/>
  <rect class="bar-quiet" x="71.9" y="131.0" width="6" height="3.0" rx="1.5"/>
  <rect class="bar-quiet" x="81.5" y="131.0" width="6" height="3.0" rx="1.5"/>
  <rect class="bar-quiet" x="91.1" y="131.0" width="6" height="3.0" rx="1.5"/>
  <rect class="bar-quiet" x="100.7" y="131.0" width="6" height="3.0" rx="1.5"/>
  <rect class="bar" x="110.3" y="120.5" width="6" height="13.5" rx="1.5"/>
  <rect class="bar" x="119.9" y="120.5" width="6" height="13.5" rx="1.5"/>
  <rect class="bar" x="129.5" y="114.2" width="6" height="19.8" rx="1.5"/>
  <rect class="bar" x="139.1" y="127.2" width="6" height="6.8" rx="1.5"/>
  <rect class="bar-quiet" x="148.7" y="131.0" width="6" height="3.0" rx="1.5"/>
  <rect class="bar-quiet" x="158.2" y="131.0" width="6" height="3.0" rx="1.5"/>
  <rect class="bar-quiet" x="167.8" y="131.0" width="6" height="3.0" rx="1.5"/>
  <rect class="bar-quiet" x="177.4" y="131.0" width="6" height="3.0" rx="1.5"/>
  <rect class="bar-quiet" x="187.0" y="131.0" width="6" height="3.0" rx="1.5"/>
  <rect class="bar-quiet" x="196.6" y="131.0" width="6" height="3.0" rx="1.5"/>
  <rect class="bar-quiet" x="206.2" y="131.0" width="6" height="3.0" rx="1.5"/>
  <rect class="bar-quiet" x="215.8" y="131.0" width="6" height="3.0" rx="1.5"/>
  <rect class="bar-quiet" x="225.4" y="131.0" width="6" height="3.0" rx="1.5"/>
  <rect class="bar-quiet" x="235.0" y="131.0" width="6" height="3.0" rx="1.5"/>
  <rect class="bar" x="244.6" y="116.4" width="6" height="17.6" rx="1.5"/>
  <rect class="bar" x="254.1" y="127.2" width="6" height="6.8" rx="1.5"/>
  <rect class="bar" x="263.7" y="127.2" width="6" height="6.8" rx="1.5"/>
  <rect class="bar" x="273.3" y="120.3" width="6" height="13.7" rx="1.5"/>
  <rect class="bar" x="282.9" y="127.2" width="6" height="6.8" rx="1.5"/>
  <rect class="bar-quiet" x="292.5" y="131.0" width="6" height="3.0" rx="1.5"/>
  <rect class="bar-quiet" x="302.1" y="131.0" width="6" height="3.0" rx="1.5"/>
  <rect class="bar-quiet" x="311.7" y="131.0" width="6" height="3.0" rx="1.5"/>
  <rect class="bar-quiet" x="321.3" y="131.0" width="6" height="3.0" rx="1.5"/>
  <rect class="bar-quiet" x="330.9" y="131.0" width="6" height="3.0" rx="1.5"/>
  <rect class="bar" x="340.4" y="123.4" width="6" height="10.6" rx="1.5"/>
  <rect class="bar" x="350.0" y="92.7" width="6" height="41.3" rx="1.5"/>
  <rect class="bar" x="359.6" y="127.2" width="6" height="6.8" rx="1.5"/>
  <rect class="bar" x="369.2" y="127.1" width="6" height="6.9" rx="1.5"/>
  <rect class="bar" x="378.8" y="120.5" width="6" height="13.5" rx="1.5"/>
  <rect class="bar" x="388.4" y="127.2" width="6" height="6.8" rx="1.5"/>
  <rect class="bar-quiet" x="398.0" y="131.0" width="6" height="3.0" rx="1.5"/>
  <rect class="bar-quiet" x="407.6" y="131.0" width="6" height="3.0" rx="1.5"/>
  <rect class="bar-quiet" x="417.2" y="131.0" width="6" height="3.0" rx="1.5"/>
  <rect class="bar" x="426.7" y="109.2" width="6" height="24.8" rx="1.5"/>
  <rect class="bar" x="436.3" y="102.0" width="6" height="32.0" rx="1.5"/>
  <rect class="bar" x="445.9" y="123.0" width="6" height="11.0" rx="1.5"/>
  <rect class="bar" x="455.5" y="120.5" width="6" height="13.5" rx="1.5"/>
  <rect class="bar-quiet" x="465.1" y="131.0" width="6" height="3.0" rx="1.5"/>
  <rect class="bar" x="474.7" y="113.7" width="6" height="20.3" rx="1.5"/>
  <rect class="bar" x="484.3" y="112.8" width="6" height="21.2" rx="1.5"/>
  <rect class="bar" x="493.9" y="111.9" width="6" height="22.1" rx="1.5"/>
  <rect class="bar" x="503.5" y="112.2" width="6" height="21.8" rx="1.5"/>
  <rect class="bar" x="513.1" y="120.5" width="6" height="13.5" rx="1.5"/>
  <rect class="bar" x="522.6" y="88.0" width="6" height="46.0" rx="1.5"/>
  <rect class="bar" x="532.2" y="126.2" width="6" height="7.8" rx="1.5"/>
  <rect class="bar-quiet" x="541.8" y="131.0" width="6" height="3.0" rx="1.5"/>
  <rect class="bar-quiet" x="551.4" y="131.0" width="6" height="3.0" rx="1.5"/>
  <rect class="bar" x="561.0" y="120.0" width="6" height="14.0" rx="1.5"/>
  <text class="axis" x="24" y="152">5 Jul 2026</text>
  <text class="axis" x="295.5" y="152" text-anchor="middle">57 days</text>
  <text class="axis" x="567" y="152" text-anchor="end">30 Aug 2026</text>
</svg>
